HIERARCHY
ROOT Bip001_Pelvis
{
  OFFSET 34.4345 95.6767 -26.8758
  CHANNELS 6 Xposition Yposition Zposition Zrotation Xrotation Yrotation
  JOINT Bip001_Spine
  {
    OFFSET 1.4188e-005 10.2191 -0.0116013
    CHANNELS 3 Zrotation Xrotation Yrotation
    JOINT Bip001_L_Thigh
    {
      OFFSET 11.0458 -10.2192 0.0116197
      CHANNELS 3 Zrotation Xrotation Yrotation
      JOINT Bip001_L_Calf
      {
        OFFSET -0.707118 -44.0221 0.360014
        CHANNELS 3 Zrotation Xrotation Yrotation
        JOINT Bip001_L_Foot
        {
          OFFSET -0.651902 -40.5938 -3.56146
          CHANNELS 3 Zrotation Xrotation Yrotation
          JOINT Bip001_L_Toe0
          {
            OFFSET 0.0530839 -10.2181 13.1504
            CHANNELS 3 Zrotation Xrotation Yrotation
            End Site
            {
              OFFSET -1.02532e-005 0 7.55606
            }
          }
        }
      }
    }
    JOINT Bip001_R_Thigh
    {
      OFFSET -11.0458 -10.2191 0.0115893
      CHANNELS 3 Zrotation Xrotation Yrotation
      JOINT Bip001_R_Calf
      {
        OFFSET 0.706994 -44.0221 0.35984
        CHANNELS 3 Zrotation Xrotation Yrotation
        JOINT Bip001_R_Foot
        {
          OFFSET 0.651786 -40.5938 -3.5613
          CHANNELS 3 Zrotation Xrotation Yrotation
          JOINT Bip001_R_Toe0
          {
            OFFSET -0.0531479 -10.2181 13.1504
            CHANNELS 3 Zrotation Xrotation Yrotation
            End Site
            {
              OFFSET -1.02894e-005 0 7.55606
            }
          }
        }
      }
    }
    JOINT Bip001_Spine1
    {
      OFFSET 1.87041e-005 14.5736 1.08638
      CHANNELS 3 Zrotation Xrotation Yrotation
      JOINT Bip001_Spine2
      {
        OFFSET 2.24614e-005 14.5058 -1.69078
        CHANNELS 3 Zrotation Xrotation Yrotation
        JOINT Bip001_Neck
        {
          OFFSET 2.20278e-005 15.3945 -0.489414
          CHANNELS 3 Zrotation Xrotation Yrotation
          JOINT Bip001_L_Clavicle
          {
            OFFSET 6.06036 -0.000579998 0.00836775
            CHANNELS 3 Zrotation Xrotation Yrotation
            JOINT Bip001_L_UpperArm
            {
              OFFSET 11.5509 -0.0600302 0.00193952
              CHANNELS 3 Zrotation Xrotation Yrotation
              JOINT Bip001_L_Forearm
              {
                OFFSET 25.9523 0.0806089 -2.15551
                CHANNELS 3 Zrotation Xrotation Yrotation
                JOINT Bip001_L_Hand
                {
                  OFFSET 32.2475 0.153767 1.63968
                  CHANNELS 3 Zrotation Xrotation Yrotation
                  JOINT Bip001_L_Finger0
                  {
                    OFFSET 6.04639 -2.20976 5.90322
                    CHANNELS 3 Zrotation Xrotation Yrotation
                    End Site
                    {
                      OFFSET 4.22375 -1.43895 0.606485
                    }
                  }
                  JOINT Bip001_L_Finger1
                  {
                    OFFSET 11.0826 -0.704819 -0.198153
                    CHANNELS 3 Zrotation Xrotation Yrotation
                    End Site
                    {
                      OFFSET 6.20027 -0.397518 -0.0787166
                    }
                  }
                }
              }
            }
          }
          JOINT Bip001_R_Clavicle
          {
            OFFSET -6.06037 -0.000563197 0.00835105
            CHANNELS 3 Zrotation Xrotation Yrotation
            JOINT Bip001_R_UpperArm
            {
              OFFSET -11.5509 -0.0599978 0.00190698
              CHANNELS 3 Zrotation Xrotation Yrotation
              JOINT Bip001_R_Forearm
              {
                OFFSET -25.9523 0.0806822 -2.15589
                CHANNELS 3 Zrotation Xrotation Yrotation
                JOINT Bip001_R_Hand
                {
                  OFFSET -32.2475 0.153859 1.63989
                  CHANNELS 3 Zrotation Xrotation Yrotation
                  JOINT Bip001_R_Finger0
                  {
                    OFFSET -6.04641 -2.20976 5.90317
                    CHANNELS 3 Zrotation Xrotation Yrotation
                    End Site
                    {
                      OFFSET -4.22376 -1.43895 0.60647
                    }
                  }
                  JOINT Bip001_R_Finger1
                  {
                    OFFSET -11.0826 -0.704794 -0.198182
                    CHANNELS 3 Zrotation Xrotation Yrotation
                    End Site
                    {
                      OFFSET -6.20028 -0.397504 -0.0787333
                    }
                  }
                }
              }
            }
          }
          JOINT Bip001_Head
          {
            OFFSET 1.09673e-005 11.2744 2.05948
            CHANNELS 3 Zrotation Xrotation Yrotation
            End Site
            {
              OFFSET 2.89576e-005 20.8808 -2.77728e-005
            }
          }
        }
      }
    }
  }
}
MOTION
Frames:	13
Frame Time:	0.04
38.3858 94.1287 -31.2145 -2.29089 -5.81611 -21.3463 0.598242 3.18962 -1.57915 2.85783 0.174882 16.5997 -1.94898 19.0139 14.9395 6.20838 -10.1561 0.305488 2.05214 -7.01461 -0.539657 -7.05442 -9.79126 5.2003 -1.59778 20.1904 3.84677 -4.74481 -8.65483 5.87455 3.70339 -12.2405 4.34467 1.28743 6.3613 -3.19903 1.28743 6.36131 -3.19904 1.77901 1.95207 8.34712 -21.1567 3.95874 -15.3979 -47.0317 37.4744 -4.9888 16.8911 -1.17411 -33.2203 9.2591 -0.385678 -6.885 2.75869e-033 -3.97569e-016 3.97569e-016 -2.75869e-032 -1.98785e-015 -7.95139e-016 24.2125 1.4856 10.4122 68.7435 27.5492 -15.8197 -19.1502 -3.03931 10.2529 11.557 -7.48779 0.523371 1.98785e-016 0 -7.95139e-016 -1.98785e-016 0 -0 -2.22651 -6.92334 9.25651 
38.5385 93.9162 -31.0548 -2.28477 -6.11558 -21.899 0.637672 3.24365 -1.682 2.81726 0.167389 16.5321 -2.58447 19.9223 15.7436 6.46154 -10.7263 0.364679 2.0089 -7.19617 -0.498778 -7.21184 -10.2927 5.68118 -1.68809 21.4771 4.10683 -4.97307 -9.18425 5.87723 3.81918 -12.5309 4.41615 1.37719 6.46691 -3.40824 1.3743 6.46692 -3.40829 1.38405 1.88816 8.97127 -20.892 4.08382 -15.4418 -47.799 38.3961 -4.37296 17.5937 0.0228443 -33.0003 8.56729 -0.499203 -7.22643 6.36111e-015 -1.59028e-015 1.59028e-015 3.18055e-015 -2.38542e-015 3.57812e-015 24.311 0.997834 9.14851 67.2659 23.306 -14.9256 -17.1469 -2.13383 10.7607 8.71257 -8.30074 0.743366 9.93923e-017 0 7.95139e-016 1.98785e-016 0 2.38542e-015 -2.20111 -6.48062 9.74709 
38.7893 93.578 -30.904 -2.29792 -6.57877 -22.3887 0.649378 3.29763 -1.77207 2.69755 0.0426959 15.9101 -3.48838 21.0701 16.8309 8.9543 -10.0423 0.390495 2.27213 -8.35877 -0.553155 -7.44478 -10.91 6.27071 -1.68527 23.3029 4.38323 -5.31316 -9.95613 5.66621 3.95159 -12.8709 4.51479 1.40653 6.57327 -3.59051 1.40627 6.57329 -3.59051 1.15731 2.08701 9.67791 -20.9317 4.09864 -15.8418 -48.5063 39.7753 -3.36952 18.14 0.61227 -32.6324 7.34798 -0.65007 -7.11736 -3.31043e-032 -7.95139e-016 -2.38542e-015 0 0 -7.95139e-016 24.2838 0.280471 7.94431 66.8403 21.086 -14.8882 -16.7346 -4.25381 11.1578 4.85245 -9.50263 1.10109 7.7029e-016 0 7.95139e-016 3.23025e-016 7.95139e-016 7.95139e-016 -2.40518 -6.2727 10.4242 
39.0432 93.2224 -30.7641 -2.60913 -7.08755 -22.5215 0.651425 3.40971 -1.82434 3.32702 -0.318177 15.8096 -4.5416 23.3996 17.4629 7.90418 -12.1027 0.486779 1.71594 -7.52676 -0.0931186 -7.48131 -11.1834 6.7324 -1.54446 24.8258 4.49261 -5.70447 -10.5924 5.35539 4.07228 -13.1788 4.60585 1.41404 6.79668 -3.69751 1.41493 6.79668 -3.69747 1.11385 2.11462 10.3412 -20.6641 4.20215 -16.3056 -49.0049 40.9618 -2.85957 18.2521 0.940653 -31.9463 6.36727 -0.553651 -6.94325 6.36111e-015 7.95139e-016 7.95139e-016 6.36111e-015 0 -7.95139e-016 24.3822 -0.0133197 7.38522 66.6025 19.0027 -15.0706 -18.5095 -7.3576 11.5207 1.68356 -9.89573 1.18078 -1.98785e-016 1.59028e-015 1.59028e-015 -2.08724e-015 7.95139e-016 1.59028e-015 -2.67342 -6.02391 11.1185 
39.3326 92.878 -30.6408 -2.88412 -7.67058 -22.3781 0.620624 3.56482 -1.81328 3.99252 -0.50885 14.4595 -6.40379 25.065 19.4404 7.88401 -13.4175 0.599293 1.67371 -7.27055 -0.107385 -7.54301 -11.4108 7.1603 -1.33217 26.3646 4.627 -6.25652 -11.0491 4.68083 4.22087 -13.5568 4.72071 1.35977 7.10788 -3.67322 1.35914 7.10792 -3.67441 0.98486 1.93106 10.9936 -20.1083 4.49639 -16.9287 -49.2783 41.3794 -2.81638 18.1481 1.35271 -31.0168 5.77079 -0.642225 -6.81882 3.18055e-015 -3.18055e-015 -7.95139e-016 6.36111e-015 -3.18056e-015 2.38542e-015 24.6295 -0.10625 6.83278 65.3779 14.6572 -14.6928 -20.4834 -7.38352 13.2223 -2.72577 -10.4821 2.34559 -2.98177e-016 4.77083e-015 1.19271e-015 -1.88845e-015 1.59028e-015 1.19271e-015 -3.04692 -5.98616 11.7853 
39.6781 92.3526 -30.5451 -3.17943 -8.2631 -21.9028 0.613557 3.73069 -1.76416 4.40925 -1.28345 14.75 -6.80826 27.7451 18.8802 8.59622 -14.3751 0.703762 1.58103 -7.45997 0.114729 -7.61598 -11.881 7.58243 -0.985276 28.5553 4.68889 -6.89427 -11.7934 3.64847 4.3648 -13.9028 4.80764 1.3415 7.44048 -3.58025 1.342 7.44051 -3.57954 0.880797 1.7239 11.6907 -19.5411 4.90104 -17.9634 -49.6056 41.1333 -2.68729 17.6915 1.34158 -30.2374 6.06863 -0.595081 -6.82747 -6.36111e-015 7.95139e-016 -6.75868e-015 -6.06912e-032 -7.95139e-016 -4.37326e-015 24.4529 -0.279502 5.95588 63.5068 9.06887 -13.4178 -21.2866 -9.22937 16.4022 -5.84236 -11.4607 4.79769 2.80783e-015 -6.36111e-015 -1.78906e-015 2.90723e-015 -3.18056e-015 -1.19271e-015 -3.84845 -5.94076 12.5752 
40.0221 91.8833 -30.4943 -3.76611 -8.90466 -21.0417 0.659485 3.91873 -1.78504 5.2853 -1.86902 14.9045 -7.60914 30.2965 18.3943 9.2491 -15.586 0.828639 1.65945 -7.47616 0.0273183 -7.62384 -11.8911 7.89004 -0.291772 30.1867 4.35217 -7.46225 -12.2744 2.6603 4.48755 -14.1987 4.88589 1.44734 7.81461 -3.62993 1.44728 7.81464 -3.62888 0.540907 1.47171 12.6978 -18.6648 5.25592 -18.8271 -50.1414 40.9174 -2.39455 16.9053 0.157297 -30.1062 6.54229 -0.067354 -5.83934 -1.37935e-032 -3.97569e-016 -1.98785e-015 8.27608e-033 3.97569e-016 -1.19271e-015 24.7033 -0.427087 5.28302 61.057 1.81624 -12.1667 -21.7946 -10.8714 21.2022 -9.36617 -12.9788 6.05197 1.98785e-015 -3.18055e-015 -2.38542e-015 3.57812e-015 3.18056e-015 -3.57812e-015 -4.17353 -6.06606 13.5163 
40.4245 91.3981 -30.4413 -4.32113 -9.55722 -19.8973 0.732068 4.06689 -1.78071 6.17625 -2.44337 14.7035 -8.54572 32.9399 18.0241 8.19154 -17.9044 0.924179 1.32267 -6.61665 0.24305 -7.8054 -11.7089 7.60754 0.285201 31.6146 3.79038 -7.85885 -12.8312 2.23749 4.67413 -14.6426 5.00368 1.59279 8.10869 -3.62513 1.59608 8.10869 -3.62684 0.136309 1.20265 13.3956 -17.9361 5.57091 -19.4558 -50.5139 40.7053 -2.02766 16.0992 -1.04614 -30.1299 6.85174 0.149923 -5.02982 6.36111e-015 1.68967e-015 -2.28602e-015 3.18055e-015 5.96354e-016 -7.95139e-016 24.9435 -0.486381 4.82349 58.5484 -5.70766 -10.3865 -24.4301 -8.27724 26.2577 -15.3988 -13.7956 6.34088 4.37326e-015 -6.36111e-015 -7.95139e-016 3.57812e-015 -9.54167e-015 -2.38542e-015 -4.22112 -6.044 14.0786 
40.9328 91.0223 -30.3926 -4.59962 -10.0001 -18.6608 0.735366 4.11765 -1.64985 6.56046 -2.8595 15.2509 -8.52149 34.5377 16.3328 9.51425 -18.4442 1.1161 1.55432 -7.01497 0.0796651 -8.20303 -11.4372 6.76968 0.664533 32.5089 3.95259 -8.34132 -13.1508 1.48264 4.85941 -15.1008 5.15848 1.59456 8.2123 -3.36518 1.59642 8.21253 -3.36559 0.385115 0.811505 13.4235 -17.8663 5.98279 -19.6028 -50.6784 40.5703 -1.69412 16.6935 -0.535382 -28.7919 6.09472 -1.38864 -7.24324 6.36111e-015 -3.97569e-016 -1.68967e-015 -4.03459e-032 -2.5842e-015 -8.94531e-016 24.6609 -0.0938128 4.61035 56.325 -12.1888 -9.07456 -28.982 -4.05338 32.7035 -22.4817 -13.7331 6.15258 -2.38542e-015 0 -0 -1.59028e-015 6.36111e-015 7.95139e-016 -4.60858 -5.33588 14.2465 
41.4882 90.6217 -30.349 -4.67853 -10.2898 -17.2433 0.680162 4.11582 -1.46601 6.91957 -3.48981 15.7585 -8.48825 36.1951 14.6001 10.8346 -19.0529 1.31956 1.73434 -7.34101 -0.119322 -8.64548 -11.3147 5.68088 0.828953 33.5464 3.7302 -8.7148 -13.6598 1.09606 4.95584 -15.3893 5.31911 1.47128 8.21251 -2.99264 1.47094 8.21235 -2.99305 0.804793 0.106231 13.0336 -18.0687 6.59456 -19.0847 -50.799 39.6987 -1.32959 16.0165 -0.87385 -29.0919 7.36132 -0.0272663 -5.90021 -3.18055e-015 -3.97569e-016 -1.59028e-015 9.65542e-032 1.98785e-015 -2.78299e-015 23.7839 0.804344 4.62818 54.5011 -18.7315 -7.6285 -33.5861 -0.871603 41.067 -27.2136 -13.9674 7.78401 -3.97569e-015 3.18055e-015 -0 -3.97569e-015 3.18056e-015 -3.18055e-015 -4.85513 -4.74345 14.0195 
41.9355 90.305 -30.4323 -4.92187 -10.4172 -14.9252 0.680785 4.08371 -1.34245 7.63738 -4.50999 14.9329 -9.01488 37.8824 13.5921 11.8569 -19.8075 1.53386 1.79161 -7.45044 -0.305782 -8.77086 -10.7815 4.00833 0.800589 33.9853 3.75251 -9.14134 -13.7364 0.405902 5.14888 -15.8152 5.41542 1.46721 8.14982 -2.74596 1.4637 8.1499 -2.74497 1.09902 -0.796414 12.2965 -18.0395 7.26298 -18.3819 -51.1121 39.1201 -0.754529 16.4894 -0.929221 -29.0867 6.97079 0.76112 -4.95026 3.18055e-015 0 -0 3.18055e-015 1.59028e-015 -0 22.5317 2.01862 4.96836 52.4536 -29.015 -6.82937 -37.72 3.78007 54.0079 -31.7144 -14.058 9.2569 -3.18055e-015 -3.18055e-015 -9.54166e-015 -1.59028e-015 -6.36111e-015 -3.18055e-015 -4.81619 -4.45994 13.3376 
42.3542 90.1503 -30.4971 -4.89236 -10.6578 -12.6898 0.623052 4.01923 -1.11784 8.02228 -5.07719 14.3901 -9.15855 38.8857 12.3157 11.5424 -20.9337 1.60871 1.83683 -6.98433 -0.557344 -9.0058 -10.0314 3.17456 1.15099 34.1066 3.12597 -9.48389 -13.5543 -0.497229 5.2857 -16.1104 5.47528 1.32702 8.02551 -2.2869 1.32883 8.02571 -2.28741 1.31465 -1.4126 10.9437 -18.2986 7.55511 -17.2965 -51.299 38.5322 -0.0428589 16.9347 -0.756285 -29.0396 7.22021 0.958674 -4.52531 3.18055e-015 -1.59028e-015 -0 3.18055e-015 0 -7.95139e-016 21.2915 3.25211 6.36928 49.3205 -38.6761 -6.22531 -42.0947 8.10132 67.8803 -37.7474 -14.1799 9.93736 1.76556e-031 3.18055e-015 -3.18055e-015 -3.18055e-015 3.18056e-015 -6.36111e-015 -4.53907 -4.32063 11.9942 
42.6093 90.0224 -30.4821 -5.02609 -11.2202 -10.2426 0.557793 4.03766 -0.830885 8.55043 -5.39282 13.8441 -8.96672 39.915 10.597 11.3456 -21.8958 1.68189 1.9724 -6.58309 -0.873836 -8.87279 -8.7789 2.30316 1.34988 34.0825 2.95829 -10.0801 -13.2485 -1.95956 5.38822 -16.3092 5.48444 1.1788 8.06672 -1.70761 1.17881 8.06681 -1.70763 2.20309 -2.12622 8.97072 -19.3136 7.87843 -15.7575 -51.0951 37.9684 0.342313 16.9821 -0.645227 -28.9726 7.92102 1.02174 -3.84815 -3.18055e-015 1.59028e-015 1.59028e-015 -3.18055e-015 1.59028e-015 1.59028e-015 19.3832 4.76683 8.03384 47.6923 -47.3063 -3.63569 -46.6828 10.7897 80.5517 -43.0055 -14.4138 9.92682 6.36111e-015 0 -1.59028e-015 6.36111e-015 -3.18056e-015 3.18055e-015 -4.7693 -3.75582 10.3349 
